<svg height="512" viewBox="0 0 46 60" width="512" xmlns="http://www.w3.org/2000/svg"><g id="Page-1" fill="none" fill-rule="evenodd"><g id="051---Virus-Protection" fill-rule="nonzero"><path id="Shape" d="m44.054 7.612c.5313625.02207904.9496915.46119184.946.993v16.269c.0066131 14.560585-8.3940569 27.8160663-21.564 34.026-.2763605.1289701-.5956395.1289701-.872 0-13.16520654-6.2152975-21.56374068-19.4674085-21.564-34.026v-16.269c-.00369147-.53180816.41463755-.97092096.946-.993 3.276-.131 14.26-.97 20.375-6.352.3861861-.34694977.9718139-.34694977 1.358 0 6.115 5.382 17.099 6.221 20.375 6.352z" fill="#e7ecfb"/><path id="Shape" d="m44.054 7.612c-3.276-.131-14.26-.97-20.375-6.352-.3861861-.34694977-.9718139-.34694977-1.358 0-.261.23-.543.441-.821.655 6.23 4.787 16.418 5.572 19.554 5.7.5301941.02203925.9480708.45935209.946.99v16.269c.0009 14.1258023-7.9181988 27.0594291-20.5 33.481.356.182.7.378 1.065.548.2763605.1289701.5956395.1289701.872 0 13.1705347-6.2106852 21.5709577-19.4675601 21.563-34.029v-16.269c.0036915-.53180816-.4146375-.97092096-.946-.993z" fill="#c9d8fb"/><path id="Shape" d="m23.486 54.292c-.3040658.1635655-.6699342.1635655-.974 0-10.7889718-5.8760464-17.50596958-17.1766511-17.512-29.462v-12.523c-.00258325-.5154781.38709871-.948458.9-1 4.686-.509 11.345-1.821 16.566-5.175.3255066-.21206752.7454934-.21206752 1.071 0 5.218 3.359 11.877 4.668 16.563 5.18.5106104.051318.8994932.4808175.9.994v12.524c-.0164063 12.2830282-6.7314348 23.5790298-17.514 29.462z" fill="#a3c1f6"/><path id="Shape" d="m40.1 11.312c-4.686-.512-11.345-1.821-16.565-5.175-.3255066-.21206752-.7454934-.21206752-1.071 0-.312.2-.643.37-.965.556 5.059 2.929 11.2 4.14 15.6 4.619.5106104.051318.8994932.4808175.9.994v12.524c-.0198258 11.8621177-6.2929178 22.8348027-16.505 28.87.338.2.672.407 1.018.595.3040658.1635655.6699342.1635655.974 0 10.7835075-5.8834862 17.4986894-17.1808961 17.514-29.465v-12.524c-.0005068-.5131825-.3893896-.942682-.9-.994z" fill="#7fabf9"/><circle id="Oval" cx="23" cy="28" fill="#e7ecfb" r="9"/><path id="Shape" d="m23 19c-.5028835.0032224-1.0046224.0483789-1.5.135 4.3297277.7267089 7.5010833 4.4747098 7.5010833 8.865s-3.1713556 8.1382911-7.5010833 8.865c3.3570875.5877651 6.7581917-.7711782 8.7859125-3.5104942 2.0277208-2.7393161 2.334161-6.389019.7916126-9.4281058-1.5425485-3.0390868-4.6694296-4.9461397-8.0775251-4.9264z" fill="#c9d8fb"/><path id="Shape" d="m1 8.605v16.269c-.00850388 14.127944 7.91283425 27.0652279 20.5 33.481.836.427 1.332.833 1.937.548.363-.171.708-.367 1.063-.548-12.5871658-6.4157721-20.50850388-19.353056-20.5-33.481v-16.269c-.00369147-.53180816.41463755-.97092096.946-.993 6.195-.247 14.512-1.84 19.56-5.693-.281-.215-.564-.427-.827-.659-.3861861-.34694977-.9718139-.34694977-1.358 0-4.921 4.34-13.836 6.091-20.375 6.352-.53136245.02207904-.94969147.46119184-.946.993z" fill="#fff"/><path id="Rectangle-path" d="m0 16.874h2v8h-2z" fill="#fff"/><g fill="#428dff"><path id="Shape" d="m1.02 21.874c-.55228475.0027614-1.00223858-.4427153-1.005-.995s.44271525-1.0022386.995-1.005h.01c.55228475 0 1 .4477153 1 1s-.44771525 1-1 1z"/><path id="Shape" d="m6.139 45.771c3.9052296 6.092454 9.4513196 10.9584547 16 14.038.5460002.2566995 1.1779998.2566995 1.724 0 13.4952065-6.4054179 22.1075709-19.9968237 22.137-34.935v-16.269c.0051365-1.06963016-.8381831-1.95098104-1.907-1.993-3.149-.125-13.882-.934-19.754-6.1-.7623413-.6821645-1.9156587-.6821645-2.678 0-5.872 5.169-16.605 5.978-19.755 6.1-1.06842319.04254289-1.91115606.92374258-1.906 1.993v8.269c0 .5522847.44771525 1 1 1s1-.4477153 1-1v-8.264c3.332-.133 14.624-1 21.018-6.6 6.366 5.604 17.682 6.469 20.982 6.595v16.269c-.0272019 14.1705737-8.2036378 27.061565-21.011 33.126-12.8159784-6.0513334-20.9907511-18.9532114-20.989-33.126 0-.5522847-.44771525-1-1-1s-1 .4477153-1 1c-.00575965 7.41108 2.12572747 14.666608 6.139 20.897z"/><path id="Shape" d="m22.036 55.173c.602168.3212445 1.324832.3212445 1.927 0 11.1200582-6.043148 18.041571-17.6869615 18.037-30.343v-12.523c.0004865-1.0240227-.7725838-1.8829897-1.791-1.99-4.566-.5-11.072-1.769-16.135-5.022-.6540353-.42495039-1.4969647-.42495039-2.151 0-5.064 3.254-11.568 4.527-16.131 5.023-1.01843199.1064944-1.79192085.9650152-1.792 1.989v12.523c.00589798 12.6528938 6.9240012 24.2916167 18.036 30.343zm-16.03-42.866c4.779-.519 11.607-1.865 16.994-5.329 5.384 3.463 12.213 4.809 17 5.329v12.523c.0042221 11.922245-6.5163639 22.8908131-16.992 28.583l.478.879-.5-.878c-10.4653342-5.7025639-16.98024781-16.6658449-16.986-28.584z"/><path id="Shape" d="m10 15.789c2.8365149-.4693166 5.6264987-1.1860527 8.338-2.142.5105563-.1930055.7720349-.7597539.5875225-1.2734406-.1845123-.5136867-.7468466-.7845278-1.2635225-.6085594-2.6015597.9162909-5.2784878 1.6025883-8 2.051-.96061302.1622047-1.66338404.9947896-1.662 1.969v5.215c0 .5522847.44771525 1 1 1s1-.4477153 1-1z"/><path id="Shape" d="m13.891 32.1-.917.53c-.3119508.1773616-.5049532.5082732-.5057421.8671183s.1907567.6906021.5019247.8693336c.3111679.1787314.694247.1770325 1.0038174-.0044519l.921-.532c.6307136.8732635 1.3974588 1.6396711 2.271 2.27l-.532.921c-.1814844.3095704-.1831833.6926495-.0044519 1.0038174.1787315.311168.5104885.5027136.8693336.5019247s.6897567-.1937913.8671183-.5057421l.53-.917c.9807229.4468696 2.027833.7306026 3.1.84v2.056c0 .5522847.4477153 1 1 1s1-.4477153 1-1v-2.05c1.072167-.1093974 2.1192771-.3931304 3.1-.84l.53.917c.1773616.3119508.5082732.5049532.8671183.5057421s.6906021-.1907567.8693336-.5019247c.1787314-.3111679.1770325-.694247-.0044519-1.0038174l-.532-.921c.8747664-.6306842 1.6425463-1.3977889 2.274-2.272l.921.532c.3095704.1814844.6926495.1831833 1.0038174.0044519.311168-.1787315.5027136-.5104885.5019247-.8693336s-.1937913-.6897567-.5057421-.8671183l-.917-.53c.4468696-.9807229.7306026-2.027833.84-3.1h2.056c.5522847 0 1-.4477153 1-1s-.4477153-1-1-1h-2.051c-.1089549-1.0722489-.3927071-2.1194298-.84-3.1l.917-.53c.3119508-.1773616.5049532-.5082732.5057421-.8671183s-.1907567-.6906021-.5019247-.8693336c-.3111679-.1787314-.694247-.1770325-1.0038174.0044519l-.921.532c-.6303824-.8746879-1.397145-1.6424635-2.271-2.274l.532-.921c.1814844-.3095704.1831833-.6926495.0044519-1.0038174-.1787315-.311168-.5104885-.5027136-.8693336-.5019247s-.6897567.1937913-.8671183.5057421l-.53.917c-.9806864-.446971-2.0278134-.7307086-3.1-.84v-3.056c0-.5522847-.4477153-1-1-1s-1 .4477153-1 1v3.052c-1.0721866.1092914-2.1193136.393029-3.1.84l-.53-.917c-.1773616-.3119508-.5082732-.5049532-.8671183-.5057421s-.6906021.1907567-.8693336.5019247c-.1787314.3111679-.1770325.694247.0044519 1.0038174l.532.921c-.8746095.6300805-1.6423807 1.3965011-2.274 2.27l-.921-.532c-.3095704-.1814844-.6926495-.1831833-1.0038174-.0044519-.311168.1787315-.5027136.5104885-.5019247.8693336s.1937913.6897567.5057421.8671183l.917.53c-.4472929.9805702-.7310451 2.0277511-.84 3.1h-2.056c-.5522847 0-1 .4477153-1 1s.4477153 1 1 1h2.051c.1089693 1.0735303.3927114 2.1220251.84 3.104zm9.109-12.1c4.418278 0 8 3.581722 8 8s-3.581722 8-8 8-8-3.581722-8-8c.0049599-4.4162219 3.5837781-7.9950401 8-8z"/><circle id="Oval" cx="20" cy="25" r="1"/><circle id="Oval" cx="21" cy="32" r="1"/><circle id="Oval" cx="26" cy="27" r="1"/></g></g></g></svg>